<?xml version="1.0" encoding="UTF-8" standalone="no"?>
<!-- Created with Inkscape (http://www.inkscape.org/) -->

<svg
   width="150mm"
   height="150mm"
   viewBox="0 0 150 150"
   version="1.1"
   id="svg550"
   inkscape:version="1.3.2 (091e20ef0f, 2023-11-25)"
   sodipodi:docname="template.svg"
   xml:space="preserve"
   xmlns:inkscape="http://www.inkscape.org/namespaces/inkscape"
   xmlns:sodipodi="http://sodipodi.sourceforge.net/DTD/sodipodi-0.dtd"
   xmlns:xlink="http://www.w3.org/1999/xlink"
   xmlns="http://www.w3.org/2000/svg"
   xmlns:svg="http://www.w3.org/2000/svg"><sodipodi:namedview
     id="namedview552"
     pagecolor="#989898"
     bordercolor="#e7e7e7"
     borderopacity="1"
     inkscape:showpageshadow="0"
     inkscape:pageopacity="0"
     inkscape:pagecheckerboard="0"
     inkscape:deskcolor="#686868"
     inkscape:document-units="mm"
     showgrid="false"
     inkscape:zoom="0.8199246"
     inkscape:cx="137.81755"
     inkscape:cy="345.15369"
     inkscape:window-width="1920"
     inkscape:window-height="1043"
     inkscape:window-x="0"
     inkscape:window-y="0"
     inkscape:window-maximized="1"
     inkscape:current-layer="layer2"
     showguides="true"
     inkscape:lockguides="false" /><defs
     id="defs547"><linearGradient
       id="linearGradient6"
       inkscape:collect="always"><stop
         style="stop-color:#6621e6;stop-opacity:1;"
         offset="0"
         id="stop6" /><stop
         style="stop-color:#5b4dff;stop-opacity:1;"
         offset="1"
         id="stop7" /></linearGradient><linearGradient
       id="linearGradient4"
       inkscape:collect="always"><stop
         style="stop-color:#a6a6a6;stop-opacity:1;"
         offset="0"
         id="stop4" /><stop
         style="stop-color:#e2e2e2;stop-opacity:1;"
         offset="1"
         id="stop5" /></linearGradient><linearGradient
       id="linearGradient2"
       inkscape:collect="always"><stop
         style="stop-color:#cacaca;stop-opacity:1;"
         offset="0"
         id="stop2" /><stop
         style="stop-color:#efefef;stop-opacity:1;"
         offset="1"
         id="stop3" /></linearGradient><rect
       x="146.99391"
       y="612.06079"
       width="97.294518"
       height="95.813332"
       id="rect481-8" /><linearGradient
       inkscape:collect="always"
       xlink:href="#linearGradient2"
       id="linearGradient3"
       x1="0"
       y1="512"
       x2="1029.12"
       y2="512"
       gradientUnits="userSpaceOnUse" /><linearGradient
       inkscape:collect="always"
       xlink:href="#linearGradient4"
       id="linearGradient5"
       x1="3.6333692"
       y1="74.901161"
       x2="146.27975"
       y2="74.901161"
       gradientUnits="userSpaceOnUse" /><linearGradient
       inkscape:collect="always"
       xlink:href="#linearGradient6"
       id="linearGradient7"
       x1="3.6333692"
       y1="74.901161"
       x2="146.27975"
       y2="74.901161"
       gradientUnits="userSpaceOnUse" /><filter
       style="color-interpolation-filters:sRGB;"
       inkscape:label="Drop Shadow"
       id="filter42"
       x="-0.077961691"
       y="-0.077961691"
       width="1.1648102"
       height="1.1648102"><feFlood
         result="flood"
         in="SourceGraphic"
         flood-opacity="0.498039"
         flood-color="rgb(0,0,0)"
         id="feFlood41" /><feGaussianBlur
         result="blur"
         in="SourceGraphic"
         stdDeviation="2.800000"
         id="feGaussianBlur41" /><feOffset
         result="offset"
         in="blur"
         dx="1.200000"
         dy="1.200000"
         id="feOffset41" /><feComposite
         result="comp1"
         operator="in"
         in="flood"
         in2="offset"
         id="feComposite41" /><feComposite
         result="comp2"
         operator="over"
         in="SourceGraphic"
         in2="comp1"
         id="feComposite42" /></filter><linearGradient
       inkscape:collect="always"
       xlink:href="#linearGradient2"
       id="linearGradient44"
       gradientUnits="userSpaceOnUse"
       x1="0"
       y1="512"
       x2="1029.12"
       y2="512" /><filter
       style="color-interpolation-filters:sRGB;"
       inkscape:label="Drop Shadow"
       id="filter78"
       x="-0.014458955"
       y="-0.01453125"
       width="1.03125"
       height="1.0321875"><feFlood
         result="flood"
         in="SourceGraphic"
         flood-opacity="0.270588"
         flood-color="rgb(0,0,0)"
         id="feFlood77" /><feGaussianBlur
         result="blur"
         in="SourceGraphic"
         stdDeviation="6.200000"
         id="feGaussianBlur77" /><feOffset
         result="offset"
         in="blur"
         dx="2.400000"
         dy="3.200000"
         id="feOffset77" /><feComposite
         result="comp1"
         operator="out"
         in="flood"
         in2="offset"
         id="feComposite77" /><feComposite
         result="comp2"
         operator="atop"
         in="comp1"
         in2="SourceGraphic"
         id="feComposite78" /></filter></defs><g
     inkscape:groupmode="layer"
     id="layer1"
     inkscape:label="Layer 1"><circle
       style="fill:url(#linearGradient7);fill-opacity:1;stroke:url(#linearGradient5);stroke-width:7.61461;filter:url(#filter42)"
       id="path2"
       cx="74.956558"
       cy="74.901161"
       r="67.515884"
       transform="matrix(0.91440937,0,0,0.91440937,6.56872,6.0432274)" /></g><g
     inkscape:groupmode="layer"
     id="layer2"
     inkscape:label="Layer 2"><g
       style="display:inline;overflow:hidden;fill:url(#linearGradient3);filter:url(#filter78)"
       id="g1"
       transform="matrix(0.08723425,0,0,0.08723425,30.615074,28.73357)"><path
         d="m 610.56,7.68 38.4,8.533333 31.14667,11.093334 25.17333,12.8 19.2,13.653333 14.50667,14.506667 10.66666,14.506666 6.82667,14.08 4.26667,12.799997 1.70666,11.09334 0.85334,8.53333 -0.42667,5.54667 v 227.84 l -2.13333,26.88 -5.54667,23.46666 -8.96,19.62667 -11.09333,16.21333 -12.8,13.22667 -14.08,10.66667 -14.93334,8.10666 -14.93333,5.97334 -14.08,4.26666 -12.8,2.98667 -11.09333,1.70667 -8.96,0.85333 h -254.72 l -29.44,2.13333 -25.17334,5.97334 -21.33333,9.38666 -17.49333,11.52 -14.08,13.65334 -11.52,14.93333 -8.53334,15.36 -6.4,15.78667 -4.26666,14.93333 -2.98667,13.65333 -1.70667,11.52 -0.85333,8.96 v 130.56 h -95.14667 l -8.96,-1.28 -11.94666,-2.98666 -13.65334,-5.12 L 88.32,747.94667 72.96,736.85333 57.6,721.49333 42.666667,701.86667 29.013333,676.69333 17.066667,645.54667 8.106667,608 2.133333,563.2 0,510.72 l 2.56,-52.05333 6.826667,-44.37334 10.24,-37.12 L 33.28,346.88 l 15.36,-24.32 17.066667,-18.77333 17.92,-14.08 17.920003,-10.24 17.06666,-6.82667 15.36,-4.26667 13.65334,-2.13333 10.24,-0.42667 h 6.82666 l 2.56,0.42667 h 348.16 V 230.82667 H 266.24 L 265.81333,113.49333 264.96,97.706667 267.09333,83.2 271.78667,69.973333 279.04,58.026667 289.70667,46.933333 302.93333,37.12 l 16.21334,-8.533333 18.77333,-7.68 21.76,-6.4 24.74667,-5.12 L 411.73333,5.12 442.02667,2.56 474.88,0.853333 510.72,0 564.90667,2.133333 Z m -268.8,84.48 -9.81333,14.08 -3.41334,17.49333 3.41334,17.49334 9.81333,14.50666 14.08,9.38667 17.49333,3.84 17.49334,-3.84 14.08,-9.38667 9.81333,-14.50666 3.41333,-17.49334 L 414.72,106.24 l -9.81333,-14.08 -14.08,-9.386667 -17.49334,-3.84 -17.49333,3.84 z m 558.50667,168.53333 11.94666,2.56 13.65334,5.12 14.93333,7.68 15.36,11.52 15.36,14.93334 14.93333,20.05333 13.65337,25.17333 11.9466,31.14667 8.96,37.54667 5.9734,44.37333 2.1333,52.48 -2.56,52.48 -6.8267,44.37333 -10.24,36.69334 -13.6533,30.29333 -15.36,24.32 -17.06667,19.2 -17.92,14.08 -17.92,10.24 -17.06666,6.82667 -15.36,3.84 -13.65334,2.13333 -10.24,0.85333 -6.82666,-0.42666 h -350.72 v 34.98666 H 762.88 l 0.42667,117.76 0.85333,15.36 L 762.02667,940.8 757.33333,954.02667 750.08,966.4 l -10.66667,10.66667 -13.22666,10.24 -16.21334,8.53333 -18.77333,7.2533 -21.76,6.4 -24.74667,5.5467 -27.30666,3.84 -30.29334,2.9867 L 554.24,1023.5733 518.4,1024 464.21333,1022.2933 418.56,1016.32 380.16,1007.7867 349.01333,997.12 323.84,984.32 l -19.2,-14.08 -14.50667,-14.50667 -10.66666,-14.50666 -6.82667,-14.08 -4.26667,-12.8 L 266.66667,903.68 265.81333,895.14667 266.24,889.6 V 661.76 l 2.13333,-27.30667 5.54667,-23.04 8.96,-19.62666 11.09333,-16.21334 12.8,-13.65333 14.08,-10.24 14.93334,-8.53333 14.93333,-5.97334 14.08,-4.26666 12.8,-2.56 11.09333,-1.70667 8.96,-0.85333 L 403.2,527.36 h 249.17333 l 29.44,-2.13333 25.17334,-5.97334 21.33333,-8.96 17.49333,-11.94666 14.08,-13.65334 11.52,-14.93333 8.53334,-15.36 6.4,-15.36 4.26666,-14.93333 2.98667,-13.65334 1.70667,-11.94666 0.85333,-8.96 v -130.56 h 89.17333 l 5.97334,0.42666 z m -276.05334,608 -9.81333,14.08 -3.41333,17.49334 3.41333,17.49333 9.81333,14.08 14.08,9.81333 17.49334,3.41334 17.49333,-3.41334 14.08,-9.81333 9.81333,-14.08 3.41334,-17.49333 -3.41334,-17.49334 -9.81333,-14.08 -14.08,-9.81333 -17.49333,-3.41333 -17.49334,3.41333 z"
         id="path1"
         style="fill:url(#linearGradient44)" /></g></g></svg>
